<svg width="16" height="15" viewBox="0 0 16 15" fill="none" xmlns="http://www.w3.org/2000/svg">
<path d="M14.0181 10.2235L11.9015 9.9818C11.3931 9.92347 10.8931 10.0985 10.5348 10.4568L9.00147 11.9901C6.64314 10.7901 4.7098 8.86514 3.5098 6.49847L5.05147 4.9568C5.4098 4.59847 5.5848 4.09847 5.52647 3.59014L5.2848 1.49014C5.1848 0.64847 4.47647 0.0151367 3.62647 0.0151367H2.1848C1.24314 0.0151367 0.459804 0.79847 0.518137 1.74014C0.959804 8.8568 6.65147 14.5401 13.7598 14.9818C14.7015 15.0401 15.4848 14.2568 15.4848 13.3151V11.8735C15.4931 11.0318 14.8598 10.3235 14.0181 10.2235Z" fill="#BCBCBC"/>
</svg>
